<mxfile host="app.diagrams.net" agent="Mozilla/5.0 (Windows NT 10.0; Win64; x64) AppleWebKit/537.36 (KHTML, like Gecko) Chrome/141.0.0.0 Safari/537.36" version="28.2.7">
  <diagram name="第 1 页" id="k-AfY5WxHYV5yZIVhnW_">
    <mxGraphModel dx="1554" dy="858" grid="1" gridSize="10" guides="1" tooltips="1" connect="1" arrows="1" fold="1" page="1" pageScale="1" pageWidth="827" pageHeight="1169" math="0" shadow="0">
      <root>
        <mxCell id="0" />
        <mxCell id="1" parent="0" />
        <mxCell id="Womy6uRPmFxDwTwF91oK-3" style="edgeStyle=orthogonalEdgeStyle;rounded=0;orthogonalLoop=1;jettySize=auto;html=1;exitX=1;exitY=0.5;exitDx=0;exitDy=0;endArrow=none;endFill=0;" edge="1" parent="1" source="Womy6uRPmFxDwTwF91oK-1" target="Womy6uRPmFxDwTwF91oK-2">
          <mxGeometry relative="1" as="geometry" />
        </mxCell>
        <mxCell id="Womy6uRPmFxDwTwF91oK-4" value="夫妻" style="edgeLabel;html=1;align=center;verticalAlign=middle;resizable=0;points=[];" vertex="1" connectable="0" parent="Womy6uRPmFxDwTwF91oK-3">
          <mxGeometry x="0.096" y="2" relative="1" as="geometry">
            <mxPoint as="offset" />
          </mxGeometry>
        </mxCell>
        <mxCell id="Womy6uRPmFxDwTwF91oK-16" style="edgeStyle=orthogonalEdgeStyle;shape=connector;rounded=0;orthogonalLoop=1;jettySize=auto;html=1;exitX=0.5;exitY=1;exitDx=0;exitDy=0;entryX=0.5;entryY=0;entryDx=0;entryDy=0;strokeColor=default;align=center;verticalAlign=middle;fontFamily=Helvetica;fontSize=11;fontColor=default;labelBackgroundColor=default;endArrow=none;endFill=0;" edge="1" parent="1" source="Womy6uRPmFxDwTwF91oK-1" target="Womy6uRPmFxDwTwF91oK-5">
          <mxGeometry relative="1" as="geometry" />
        </mxCell>
        <mxCell id="Womy6uRPmFxDwTwF91oK-18" style="edgeStyle=orthogonalEdgeStyle;shape=connector;rounded=0;orthogonalLoop=1;jettySize=auto;html=1;exitX=0.5;exitY=1;exitDx=0;exitDy=0;strokeColor=default;align=center;verticalAlign=middle;fontFamily=Helvetica;fontSize=11;fontColor=default;labelBackgroundColor=default;endArrow=none;endFill=0;" edge="1" parent="1" source="Womy6uRPmFxDwTwF91oK-1" target="Womy6uRPmFxDwTwF91oK-6">
          <mxGeometry relative="1" as="geometry" />
        </mxCell>
        <mxCell id="Womy6uRPmFxDwTwF91oK-1" value="江恒森" style="rounded=0;whiteSpace=wrap;html=1;" vertex="1" parent="1">
          <mxGeometry x="270" y="120" width="80" height="50" as="geometry" />
        </mxCell>
        <mxCell id="Womy6uRPmFxDwTwF91oK-17" style="edgeStyle=orthogonalEdgeStyle;shape=connector;rounded=0;orthogonalLoop=1;jettySize=auto;html=1;exitX=0.5;exitY=1;exitDx=0;exitDy=0;entryX=0.5;entryY=0;entryDx=0;entryDy=0;strokeColor=default;align=center;verticalAlign=middle;fontFamily=Helvetica;fontSize=11;fontColor=default;labelBackgroundColor=default;endArrow=none;endFill=0;" edge="1" parent="1" source="Womy6uRPmFxDwTwF91oK-2" target="Womy6uRPmFxDwTwF91oK-5">
          <mxGeometry relative="1" as="geometry" />
        </mxCell>
        <mxCell id="Womy6uRPmFxDwTwF91oK-2" value="刘金莲" style="rounded=1;whiteSpace=wrap;html=1;" vertex="1" parent="1">
          <mxGeometry x="400" y="120" width="90" height="50" as="geometry" />
        </mxCell>
        <mxCell id="Womy6uRPmFxDwTwF91oK-5" value="江式高" style="rounded=0;whiteSpace=wrap;html=1;" vertex="1" parent="1">
          <mxGeometry x="200" y="230" width="80" height="50" as="geometry" />
        </mxCell>
        <mxCell id="Womy6uRPmFxDwTwF91oK-21" style="edgeStyle=orthogonalEdgeStyle;shape=connector;rounded=0;orthogonalLoop=1;jettySize=auto;html=1;exitX=1;exitY=0.5;exitDx=0;exitDy=0;entryX=0;entryY=0.5;entryDx=0;entryDy=0;strokeColor=default;align=center;verticalAlign=middle;fontFamily=Helvetica;fontSize=11;fontColor=default;labelBackgroundColor=default;endArrow=none;endFill=0;" edge="1" parent="1" source="Womy6uRPmFxDwTwF91oK-6" target="Womy6uRPmFxDwTwF91oK-20">
          <mxGeometry relative="1" as="geometry" />
        </mxCell>
        <mxCell id="Womy6uRPmFxDwTwF91oK-22" value="夫妻" style="edgeLabel;html=1;align=center;verticalAlign=middle;resizable=0;points=[];fontFamily=Helvetica;fontSize=11;fontColor=default;labelBackgroundColor=default;" vertex="1" connectable="0" parent="Womy6uRPmFxDwTwF91oK-21">
          <mxGeometry x="0.02" relative="1" as="geometry">
            <mxPoint as="offset" />
          </mxGeometry>
        </mxCell>
        <mxCell id="Womy6uRPmFxDwTwF91oK-6" value="江式全" style="rounded=0;whiteSpace=wrap;html=1;" vertex="1" parent="1">
          <mxGeometry x="350" y="230" width="80" height="50" as="geometry" />
        </mxCell>
        <mxCell id="Womy6uRPmFxDwTwF91oK-20" value="刘金莲" style="rounded=1;whiteSpace=wrap;html=1;" vertex="1" parent="1">
          <mxGeometry x="470" y="230" width="90" height="50" as="geometry" />
        </mxCell>
      </root>
    </mxGraphModel>
  </diagram>
</mxfile>
